<mxfile host="app.diagrams.net" agent="Mozilla/5.0 (X11; CrOS x86_64 14541.0.0) AppleWebKit/537.36 (KHTML, like Gecko) Chrome/133.0.0.0 Safari/537.36" version="26.1.1" pages="3">
  <diagram name="casos de uso" id="5ynnEHup6HO9OvjbtFeK">
    <mxGraphModel dx="1120" dy="426" grid="1" gridSize="10" guides="1" tooltips="1" connect="1" arrows="1" fold="1" page="1" pageScale="1" pageWidth="827" pageHeight="1169" math="0" shadow="0">
      <root>
        <mxCell id="0" />
        <mxCell id="1" parent="0" />
        <mxCell id="h1bn67cL_YCnqW_peCk6-1" value="editar arquivos" style="ellipse;whiteSpace=wrap;html=1;fillColor=light-dark(#7EA6E0,var(--ge-dark-color, #121212));" parent="1" vertex="1">
          <mxGeometry x="220" y="370" width="100" height="60" as="geometry" />
        </mxCell>
        <mxCell id="h1bn67cL_YCnqW_peCk6-2" value="Úsuario" style="shape=umlActor;verticalLabelPosition=bottom;verticalAlign=top;html=1;outlineConnect=0;" parent="1" vertex="1">
          <mxGeometry x="80" y="460" width="40" height="70" as="geometry" />
        </mxCell>
        <mxCell id="h1bn67cL_YCnqW_peCk6-3" value="" style="endArrow=classic;html=1;rounded=0;entryX=1;entryY=1;entryDx=0;entryDy=0;exitX=0;exitY=0;exitDx=0;exitDy=0;" parent="1" source="h1bn67cL_YCnqW_peCk6-11" target="h1bn67cL_YCnqW_peCk6-1" edge="1">
          <mxGeometry width="50" height="50" relative="1" as="geometry">
            <mxPoint x="120" y="500" as="sourcePoint" />
            <mxPoint x="170" y="450" as="targetPoint" />
            <Array as="points" />
          </mxGeometry>
        </mxCell>
        <mxCell id="h1bn67cL_YCnqW_peCk6-5" value="enviar notificações" style="ellipse;whiteSpace=wrap;html=1;fillColor=light-dark(#7EA6E0,var(--ge-dark-color, #121212));" parent="1" vertex="1">
          <mxGeometry x="727" y="80" width="100" height="60" as="geometry" />
        </mxCell>
        <mxCell id="h1bn67cL_YCnqW_peCk6-6" value="criar conta" style="ellipse;whiteSpace=wrap;html=1;fillColor=light-dark(#7EA6E0,var(--ge-dark-color, #121212));" parent="1" vertex="1">
          <mxGeometry x="250" y="500" width="100" height="60" as="geometry" />
        </mxCell>
        <mxCell id="h1bn67cL_YCnqW_peCk6-7" value="criar metas" style="ellipse;whiteSpace=wrap;html=1;fillColor=light-dark(#7EA6E0,var(--ge-dark-color, #121212));" parent="1" vertex="1">
          <mxGeometry x="360" y="640" width="100" height="60" as="geometry" />
        </mxCell>
        <mxCell id="h1bn67cL_YCnqW_peCk6-8" value="sincronizar com calendário" style="ellipse;whiteSpace=wrap;html=1;fillColor=light-dark(#7EA6E0,var(--ge-dark-color, #121212));" parent="1" vertex="1">
          <mxGeometry x="627" y="290" width="100" height="60" as="geometry" />
        </mxCell>
        <mxCell id="h1bn67cL_YCnqW_peCk6-9" value="criar prompts" style="ellipse;whiteSpace=wrap;html=1;fillColor=light-dark(#7EA6E0,var(--ge-dark-color, #121212));" parent="1" vertex="1">
          <mxGeometry x="770" y="550" width="100" height="60" as="geometry" />
        </mxCell>
        <mxCell id="h1bn67cL_YCnqW_peCk6-10" value="gerenciar dados dos úsuarios" style="ellipse;whiteSpace=wrap;html=1;fillColor=light-dark(#7EA6E0,var(--ge-dark-color, #121212));" parent="1" vertex="1">
          <mxGeometry x="840" y="400" width="100" height="60" as="geometry" />
        </mxCell>
        <mxCell id="h1bn67cL_YCnqW_peCk6-11" value="criar arquivos" style="ellipse;whiteSpace=wrap;html=1;fillColor=light-dark(#7EA6E0,var(--ge-dark-color, #121212));" parent="1" vertex="1">
          <mxGeometry x="410" y="490" width="100" height="60" as="geometry" />
        </mxCell>
        <mxCell id="h1bn67cL_YCnqW_peCk6-12" value="excluir arquivos" style="ellipse;whiteSpace=wrap;html=1;fillColor=light-dark(#7EA6E0,var(--ge-dark-color, #121212));" parent="1" vertex="1">
          <mxGeometry x="250" y="585" width="100" height="60" as="geometry" />
        </mxCell>
        <mxCell id="h1bn67cL_YCnqW_peCk6-13" value="criar prompts sobre imagens" style="ellipse;whiteSpace=wrap;html=1;fillColor=light-dark(#7EA6E0,var(--ge-dark-color, #121212));" parent="1" vertex="1">
          <mxGeometry x="680" y="620" width="100" height="60" as="geometry" />
        </mxCell>
        <mxCell id="h1bn67cL_YCnqW_peCk6-14" value="copiar e colar imagens&amp;nbsp;" style="ellipse;whiteSpace=wrap;html=1;fillColor=light-dark(#7EA6E0,var(--ge-dark-color, #121212));" parent="1" vertex="1">
          <mxGeometry x="110" y="300" width="100" height="60" as="geometry" />
        </mxCell>
        <mxCell id="h1bn67cL_YCnqW_peCk6-17" value="" style="endArrow=classic;html=1;rounded=0;entryX=0;entryY=0.5;entryDx=0;entryDy=0;exitX=1;exitY=0.3333333333333333;exitDx=0;exitDy=0;exitPerimeter=0;" parent="1" source="h1bn67cL_YCnqW_peCk6-2" edge="1">
          <mxGeometry width="50" height="50" relative="1" as="geometry">
            <mxPoint x="130" y="499.66666666666674" as="sourcePoint" />
            <mxPoint x="260" y="530" as="targetPoint" />
          </mxGeometry>
        </mxCell>
        <mxCell id="h1bn67cL_YCnqW_peCk6-18" value="" style="endArrow=classic;html=1;rounded=0;exitX=0.26;exitY=0.933;exitDx=0;exitDy=0;exitPerimeter=0;" parent="1" source="h1bn67cL_YCnqW_peCk6-11" target="h1bn67cL_YCnqW_peCk6-12" edge="1">
          <mxGeometry width="50" height="50" relative="1" as="geometry">
            <mxPoint x="360" y="540" as="sourcePoint" />
            <mxPoint x="310" y="620" as="targetPoint" />
          </mxGeometry>
        </mxCell>
        <mxCell id="h1bn67cL_YCnqW_peCk6-20" value="IA" style="shape=umlActor;verticalLabelPosition=bottom;verticalAlign=top;html=1;outlineConnect=0;" parent="1" vertex="1">
          <mxGeometry x="875" y="630" width="30" height="60" as="geometry" />
        </mxCell>
        <mxCell id="h1bn67cL_YCnqW_peCk6-21" value="" style="endArrow=classic;html=1;rounded=0;entryX=1;entryY=1;entryDx=0;entryDy=0;" parent="1" source="h1bn67cL_YCnqW_peCk6-20" target="h1bn67cL_YCnqW_peCk6-9" edge="1">
          <mxGeometry width="50" height="50" relative="1" as="geometry">
            <mxPoint x="1100" y="650" as="sourcePoint" />
            <mxPoint x="1150" y="600" as="targetPoint" />
          </mxGeometry>
        </mxCell>
        <mxCell id="h1bn67cL_YCnqW_peCk6-22" value="" style="endArrow=classic;html=1;rounded=0;exitX=1;exitY=0.5;exitDx=0;exitDy=0;" parent="1" source="h1bn67cL_YCnqW_peCk6-6" target="h1bn67cL_YCnqW_peCk6-11" edge="1">
          <mxGeometry width="50" height="50" relative="1" as="geometry">
            <mxPoint x="350" y="530" as="sourcePoint" />
            <mxPoint x="400" y="480" as="targetPoint" />
            <Array as="points" />
          </mxGeometry>
        </mxCell>
        <mxCell id="h1bn67cL_YCnqW_peCk6-24" value="Sistema" style="shape=umlActor;verticalLabelPosition=bottom;verticalAlign=top;html=1;outlineConnect=0;" parent="1" vertex="1">
          <mxGeometry x="770" y="220" width="30" height="60" as="geometry" />
        </mxCell>
        <mxCell id="h1bn67cL_YCnqW_peCk6-25" value="" style="endArrow=classic;html=1;rounded=0;entryX=1;entryY=0.333;entryDx=0;entryDy=0;entryPerimeter=0;" parent="1" source="h1bn67cL_YCnqW_peCk6-20" target="h1bn67cL_YCnqW_peCk6-13" edge="1">
          <mxGeometry width="50" height="50" relative="1" as="geometry">
            <mxPoint x="880" y="650" as="sourcePoint" />
            <mxPoint x="930" y="600" as="targetPoint" />
          </mxGeometry>
        </mxCell>
        <mxCell id="h1bn67cL_YCnqW_peCk6-26" value="" style="endArrow=classic;html=1;rounded=0;exitX=0;exitY=0.3333333333333333;exitDx=0;exitDy=0;exitPerimeter=0;" parent="1" source="h1bn67cL_YCnqW_peCk6-24" target="h1bn67cL_YCnqW_peCk6-10" edge="1">
          <mxGeometry width="50" height="50" relative="1" as="geometry">
            <mxPoint x="500" y="430" as="sourcePoint" />
            <mxPoint x="550" y="380" as="targetPoint" />
            <Array as="points">
              <mxPoint x="750" y="330" />
            </Array>
          </mxGeometry>
        </mxCell>
        <mxCell id="h1bn67cL_YCnqW_peCk6-27" value="" style="endArrow=classic;html=1;rounded=0;exitX=0.03;exitY=0.733;exitDx=0;exitDy=0;exitPerimeter=0;" parent="1" source="h1bn67cL_YCnqW_peCk6-10" target="h1bn67cL_YCnqW_peCk6-28" edge="1">
          <mxGeometry width="50" height="50" relative="1" as="geometry">
            <mxPoint x="1120" y="310" as="sourcePoint" />
            <mxPoint x="1160" y="390" as="targetPoint" />
          </mxGeometry>
        </mxCell>
        <mxCell id="h1bn67cL_YCnqW_peCk6-28" value="sincronizar com agenda" style="ellipse;whiteSpace=wrap;html=1;fillColor=light-dark(#7EA6E0,var(--ge-dark-color, #121212));" parent="1" vertex="1">
          <mxGeometry x="650" y="400" width="100" height="60" as="geometry" />
        </mxCell>
        <mxCell id="h1bn67cL_YCnqW_peCk6-29" value="" style="endArrow=classic;html=1;rounded=0;entryX=0.5;entryY=0;entryDx=0;entryDy=0;" parent="1" source="h1bn67cL_YCnqW_peCk6-24" target="h1bn67cL_YCnqW_peCk6-45" edge="1">
          <mxGeometry width="50" height="50" relative="1" as="geometry">
            <mxPoint x="1100" y="200" as="sourcePoint" />
            <mxPoint x="1240.5" y="135" as="targetPoint" />
            <Array as="points" />
          </mxGeometry>
        </mxCell>
        <mxCell id="h1bn67cL_YCnqW_peCk6-30" value="" style="endArrow=classic;html=1;rounded=0;entryX=0.03;entryY=0.333;entryDx=0;entryDy=0;entryPerimeter=0;" parent="1" source="h1bn67cL_YCnqW_peCk6-24" target="h1bn67cL_YCnqW_peCk6-47" edge="1">
          <mxGeometry width="50" height="50" relative="1" as="geometry">
            <mxPoint x="1170" y="210" as="sourcePoint" />
            <mxPoint x="1220" y="220" as="targetPoint" />
          </mxGeometry>
        </mxCell>
        <mxCell id="h1bn67cL_YCnqW_peCk6-31" value="" style="endArrow=classic;html=1;rounded=0;exitX=0;exitY=0.5;exitDx=0;exitDy=0;entryX=1;entryY=0.5;entryDx=0;entryDy=0;" parent="1" source="h1bn67cL_YCnqW_peCk6-42" target="h1bn67cL_YCnqW_peCk6-14" edge="1">
          <mxGeometry width="50" height="50" relative="1" as="geometry">
            <mxPoint x="50" y="315" as="sourcePoint" />
            <mxPoint x="100" y="310" as="targetPoint" />
          </mxGeometry>
        </mxCell>
        <mxCell id="h1bn67cL_YCnqW_peCk6-32" value="" style="endArrow=classic;html=1;rounded=0;entryX=0;entryY=0.5;entryDx=0;entryDy=0;" parent="1" source="h1bn67cL_YCnqW_peCk6-12" target="h1bn67cL_YCnqW_peCk6-7" edge="1">
          <mxGeometry width="50" height="50" relative="1" as="geometry">
            <mxPoint x="300" y="710" as="sourcePoint" />
            <mxPoint x="360" y="730" as="targetPoint" />
          </mxGeometry>
        </mxCell>
        <mxCell id="h1bn67cL_YCnqW_peCk6-33" value="" style="endArrow=classic;html=1;rounded=0;" parent="1" source="h1bn67cL_YCnqW_peCk6-28" target="h1bn67cL_YCnqW_peCk6-8" edge="1">
          <mxGeometry width="50" height="50" relative="1" as="geometry">
            <mxPoint x="630" y="560" as="sourcePoint" />
            <mxPoint x="810" y="260" as="targetPoint" />
          </mxGeometry>
        </mxCell>
        <mxCell id="h1bn67cL_YCnqW_peCk6-35" value="" style="endArrow=classic;html=1;rounded=0;exitX=1;exitY=0.3333333333333333;exitDx=0;exitDy=0;exitPerimeter=0;entryX=0.02;entryY=0.75;entryDx=0;entryDy=0;entryPerimeter=0;" parent="1" source="h1bn67cL_YCnqW_peCk6-20" target="h1bn67cL_YCnqW_peCk6-51" edge="1">
          <mxGeometry width="50" height="50" relative="1" as="geometry">
            <mxPoint x="905" y="640" as="sourcePoint" />
            <mxPoint x="980" y="600" as="targetPoint" />
          </mxGeometry>
        </mxCell>
        <mxCell id="h1bn67cL_YCnqW_peCk6-36" value="" style="endArrow=classic;html=1;rounded=0;" parent="1" target="L1QKmDAtesayIT9dAjuc-6" edge="1">
          <mxGeometry width="50" height="50" relative="1" as="geometry">
            <mxPoint x="800" y="240" as="sourcePoint" />
            <mxPoint x="960" y="240" as="targetPoint" />
          </mxGeometry>
        </mxCell>
        <mxCell id="h1bn67cL_YCnqW_peCk6-37" value="" style="endArrow=classic;html=1;rounded=0;exitX=1;exitY=0.5;exitDx=0;exitDy=0;entryX=0;entryY=0;entryDx=0;entryDy=0;" parent="1" source="h1bn67cL_YCnqW_peCk6-42" target="h1bn67cL_YCnqW_peCk6-48" edge="1">
          <mxGeometry width="50" height="50" relative="1" as="geometry">
            <mxPoint x="330" y="300" as="sourcePoint" />
            <mxPoint x="410" y="330" as="targetPoint" />
          </mxGeometry>
        </mxCell>
        <mxCell id="h1bn67cL_YCnqW_peCk6-38" value="" style="endArrow=classic;html=1;rounded=0;entryX=0;entryY=1;entryDx=0;entryDy=0;" parent="1" source="h1bn67cL_YCnqW_peCk6-24" target="h1bn67cL_YCnqW_peCk6-44" edge="1">
          <mxGeometry width="50" height="50" relative="1" as="geometry">
            <mxPoint x="1100" y="150" as="sourcePoint" />
            <mxPoint x="1200" y="140" as="targetPoint" />
          </mxGeometry>
        </mxCell>
        <mxCell id="h1bn67cL_YCnqW_peCk6-39" value="" style="endArrow=classic;html=1;rounded=0;exitX=0;exitY=0.333;exitDx=0;exitDy=0;exitPerimeter=0;entryX=0.98;entryY=0.7;entryDx=0;entryDy=0;entryPerimeter=0;" parent="1" source="h1bn67cL_YCnqW_peCk6-9" target="h1bn67cL_YCnqW_peCk6-49" edge="1">
          <mxGeometry width="50" height="50" relative="1" as="geometry">
            <mxPoint x="920" y="550" as="sourcePoint" />
            <mxPoint x="830" y="600" as="targetPoint" />
          </mxGeometry>
        </mxCell>
        <mxCell id="h1bn67cL_YCnqW_peCk6-40" value="" style="endArrow=classic;html=1;rounded=0;entryX=0.61;entryY=0.983;entryDx=0;entryDy=0;exitX=0.5;exitY=0;exitDx=0;exitDy=0;exitPerimeter=0;entryPerimeter=0;" parent="1" source="h1bn67cL_YCnqW_peCk6-24" target="h1bn67cL_YCnqW_peCk6-5" edge="1">
          <mxGeometry width="50" height="50" relative="1" as="geometry">
            <mxPoint x="1070" y="150" as="sourcePoint" />
            <mxPoint x="920" y="160" as="targetPoint" />
          </mxGeometry>
        </mxCell>
        <mxCell id="h1bn67cL_YCnqW_peCk6-42" value="fazer upload de imagens" style="ellipse;whiteSpace=wrap;html=1;fillColor=light-dark(#7EA6E0,var(--ge-dark-color, #121212));" parent="1" vertex="1">
          <mxGeometry x="230" y="260" width="100" height="60" as="geometry" />
        </mxCell>
        <mxCell id="h1bn67cL_YCnqW_peCk6-44" value="suporte técnico" style="ellipse;whiteSpace=wrap;html=1;fillColor=light-dark(#7EA6E0,var(--ge-dark-color, #121212));" parent="1" vertex="1">
          <mxGeometry x="910" y="90" width="100" height="60" as="geometry" />
        </mxCell>
        <mxCell id="h1bn67cL_YCnqW_peCk6-45" value="administrar IA" style="ellipse;whiteSpace=wrap;html=1;fillColor=light-dark(#7EA6E0,var(--ge-dark-color, #121212));" parent="1" vertex="1">
          <mxGeometry x="850" y="310" width="100" height="60" as="geometry" />
        </mxCell>
        <mxCell id="h1bn67cL_YCnqW_peCk6-47" value="fazer backup de dados do usuário" style="ellipse;whiteSpace=wrap;html=1;fillColor=light-dark(#7EA6E0,var(--ge-dark-color, #121212));" parent="1" vertex="1">
          <mxGeometry x="620" y="170" width="100" height="60" as="geometry" />
        </mxCell>
        <mxCell id="h1bn67cL_YCnqW_peCk6-48" value="fazer upload de vídeos" style="ellipse;whiteSpace=wrap;html=1;fillColor=light-dark(#7EA6E0,var(--ge-dark-color, #121212));" parent="1" vertex="1">
          <mxGeometry x="380" y="310" width="100" height="60" as="geometry" />
        </mxCell>
        <mxCell id="h1bn67cL_YCnqW_peCk6-49" value="criar prompts de de vídeos" style="ellipse;whiteSpace=wrap;html=1;fillColor=light-dark(#7EA6E0,var(--ge-dark-color, #121212));" parent="1" vertex="1">
          <mxGeometry x="610" y="510" width="100" height="60" as="geometry" />
        </mxCell>
        <mxCell id="h1bn67cL_YCnqW_peCk6-50" value="fazer reconhecimento de pessoas históricas" style="ellipse;whiteSpace=wrap;html=1;fillColor=light-dark(#7EA6E0,var(--ge-dark-color, #121212));" parent="1" vertex="1">
          <mxGeometry x="510" y="590" width="100" height="60" as="geometry" />
        </mxCell>
        <mxCell id="h1bn67cL_YCnqW_peCk6-51" value="selecionar tipos de resumos" style="ellipse;whiteSpace=wrap;html=1;fillColor=light-dark(#7EA6E0,var(--ge-dark-color, #121212));" parent="1" vertex="1">
          <mxGeometry x="950" y="550" width="100" height="60" as="geometry" />
        </mxCell>
        <mxCell id="L1QKmDAtesayIT9dAjuc-5" value="compartilhar resumos com amigos" style="ellipse;whiteSpace=wrap;html=1;fillColor=light-dark(#7EA6E0,var(--ge-dark-color, #121212));" parent="1" vertex="1">
          <mxGeometry x="470" y="410" width="100" height="60" as="geometry" />
        </mxCell>
        <mxCell id="L1QKmDAtesayIT9dAjuc-6" value="gerenciar transações financeiras" style="ellipse;whiteSpace=wrap;html=1;fillColor=light-dark(#7EA6E0,var(--ge-dark-color, #121212));" parent="1" vertex="1">
          <mxGeometry x="960" y="210" width="100" height="60" as="geometry" />
        </mxCell>
        <mxCell id="L1QKmDAtesayIT9dAjuc-10" value="" style="endArrow=classic;html=1;rounded=0;exitX=0;exitY=0;exitDx=0;exitDy=0;entryX=1;entryY=0.5;entryDx=0;entryDy=0;" parent="1" source="h1bn67cL_YCnqW_peCk6-13" target="h1bn67cL_YCnqW_peCk6-50" edge="1">
          <mxGeometry width="50" height="50" relative="1" as="geometry">
            <mxPoint x="703" y="610" as="sourcePoint" />
            <mxPoint x="610" y="597" as="targetPoint" />
          </mxGeometry>
        </mxCell>
        <mxCell id="L1QKmDAtesayIT9dAjuc-11" value="" style="endArrow=classic;html=1;rounded=0;" parent="1" source="h1bn67cL_YCnqW_peCk6-48" target="L1QKmDAtesayIT9dAjuc-5" edge="1">
          <mxGeometry width="50" height="50" relative="1" as="geometry">
            <mxPoint x="563" y="443" as="sourcePoint" />
            <mxPoint x="490" y="420" as="targetPoint" />
          </mxGeometry>
        </mxCell>
        <mxCell id="L1QKmDAtesayIT9dAjuc-12" value="" style="endArrow=classic;html=1;rounded=0;exitX=0.57;exitY=0.033;exitDx=0;exitDy=0;exitPerimeter=0;entryX=0.5;entryY=1;entryDx=0;entryDy=0;" parent="1" source="h1bn67cL_YCnqW_peCk6-1" target="h1bn67cL_YCnqW_peCk6-42" edge="1">
          <mxGeometry width="50" height="50" relative="1" as="geometry">
            <mxPoint x="380" y="363" as="sourcePoint" />
            <mxPoint x="287" y="350" as="targetPoint" />
          </mxGeometry>
        </mxCell>
        <mxCell id="L1QKmDAtesayIT9dAjuc-17" value="" style="endArrow=classic;html=1;rounded=0;exitX=0.92;exitY=0.283;exitDx=0;exitDy=0;exitPerimeter=0;" parent="1" source="h1bn67cL_YCnqW_peCk6-9" target="L1QKmDAtesayIT9dAjuc-19" edge="1">
          <mxGeometry width="50" height="50" relative="1" as="geometry">
            <mxPoint x="880" y="496" as="sourcePoint" />
            <mxPoint x="970" y="500" as="targetPoint" />
          </mxGeometry>
        </mxCell>
        <mxCell id="L1QKmDAtesayIT9dAjuc-18" value="" style="endArrow=classic;html=1;rounded=0;exitX=0.97;exitY=0.717;exitDx=0;exitDy=0;exitPerimeter=0;" parent="1" source="L1QKmDAtesayIT9dAjuc-19" edge="1">
          <mxGeometry width="50" height="50" relative="1" as="geometry">
            <mxPoint x="1124" y="478" as="sourcePoint" />
            <mxPoint x="1110" y="580" as="targetPoint" />
          </mxGeometry>
        </mxCell>
        <mxCell id="L1QKmDAtesayIT9dAjuc-19" value="Reajustar resumos" style="ellipse;whiteSpace=wrap;html=1;fillColor=light-dark(#7EA6E0,var(--ge-dark-color, #121212));" parent="1" vertex="1">
          <mxGeometry x="970" y="460" width="100" height="60" as="geometry" />
        </mxCell>
        <mxCell id="L1QKmDAtesayIT9dAjuc-20" value="Baixar resumos" style="ellipse;whiteSpace=wrap;html=1;fillColor=light-dark(#7EA6E0,var(--ge-dark-color, #121212));" parent="1" vertex="1">
          <mxGeometry x="1080" y="580" width="100" height="60" as="geometry" />
        </mxCell>
        <mxCell id="L1QKmDAtesayIT9dAjuc-22" value="gerenciar transações financeiras" style="ellipse;whiteSpace=wrap;html=1;fillColor=light-dark(#7EA6E0,var(--ge-dark-color, #121212));" parent="1" vertex="1">
          <mxGeometry x="1060" y="360" width="100" height="60" as="geometry" />
        </mxCell>
        <mxCell id="L1QKmDAtesayIT9dAjuc-23" value="Alertar sobre prazos" style="ellipse;whiteSpace=wrap;html=1;fillColor=light-dark(#7EA6E0,var(--ge-dark-color, #121212));" parent="1" vertex="1">
          <mxGeometry x="540" y="100" width="100" height="60" as="geometry" />
        </mxCell>
        <mxCell id="L1QKmDAtesayIT9dAjuc-25" value="" style="endArrow=classic;html=1;rounded=0;exitX=0.05;exitY=0.333;exitDx=0;exitDy=0;exitPerimeter=0;" parent="1" source="h1bn67cL_YCnqW_peCk6-5" target="L1QKmDAtesayIT9dAjuc-23" edge="1">
          <mxGeometry width="50" height="50" relative="1" as="geometry">
            <mxPoint x="680" y="121" as="sourcePoint" />
            <mxPoint x="683" y="40" as="targetPoint" />
          </mxGeometry>
        </mxCell>
      </root>
    </mxGraphModel>
  </diagram>
  <diagram id="Qqm4PrU-cwMreHm_xGhf" name="diagrama de classes">
    <mxGraphModel dx="1120" dy="426" grid="1" gridSize="10" guides="1" tooltips="1" connect="1" arrows="1" fold="1" page="1" pageScale="1" pageWidth="827" pageHeight="1169" math="0" shadow="0">
      <root>
        <mxCell id="0" />
        <mxCell id="1" parent="0" />
      </root>
    </mxGraphModel>
  </diagram>
  <diagram id="51eIAXAHouZHUZTB2hla" name="diagrama de estados">
    <mxGraphModel dx="1947" dy="426" grid="1" gridSize="10" guides="1" tooltips="1" connect="1" arrows="1" fold="1" page="1" pageScale="1" pageWidth="827" pageHeight="1169" math="0" shadow="0">
      <root>
        <mxCell id="0" />
        <mxCell id="1" parent="0" />
        <mxCell id="Hefcqt-eKA1M58TUaDVi-2" value="" style="ellipse;whiteSpace=wrap;html=1;aspect=fixed;fillColor=light-dark(#000000,#000000);" vertex="1" parent="1">
          <mxGeometry x="820" y="480" width="60" height="60" as="geometry" />
        </mxCell>
        <mxCell id="Hefcqt-eKA1M58TUaDVi-3" value="" style="ellipse;whiteSpace=wrap;html=1;aspect=fixed;fillColor=light-dark(#000000,var(--ge-dark-color, #121212));" vertex="1" parent="1">
          <mxGeometry x="-210" y="130" width="60" height="60" as="geometry" />
        </mxCell>
        <mxCell id="Hefcqt-eKA1M58TUaDVi-4" value="editar prompt" style="rounded=1;whiteSpace=wrap;html=1;fillColor=light-dark(#FFE599,var(--ge-dark-color, #121212));" vertex="1" parent="1">
          <mxGeometry x="610" y="620" width="120" height="60" as="geometry" />
        </mxCell>
        <mxCell id="Hefcqt-eKA1M58TUaDVi-5" value="criar prompt" style="rounded=1;whiteSpace=wrap;html=1;fillColor=light-dark(#FFE599,var(--ge-dark-color, #121212));" vertex="1" parent="1">
          <mxGeometry x="610" y="480" width="120" height="60" as="geometry" />
        </mxCell>
        <mxCell id="Hefcqt-eKA1M58TUaDVi-6" value="editar arquivos" style="rounded=1;whiteSpace=wrap;html=1;fillColor=light-dark(#FFE599,var(--ge-dark-color, #121212));" vertex="1" parent="1">
          <mxGeometry x="50" y="280" width="120" height="60" as="geometry" />
        </mxCell>
        <mxCell id="Hefcqt-eKA1M58TUaDVi-7" value="excluir arquivos" style="rounded=1;whiteSpace=wrap;html=1;fillColor=light-dark(#FFE599,var(--ge-dark-color, #121212));" vertex="1" parent="1">
          <mxGeometry x="320" y="280" width="120" height="60" as="geometry" />
        </mxCell>
        <mxCell id="Hefcqt-eKA1M58TUaDVi-8" value="Criar arquivos" style="rounded=1;whiteSpace=wrap;html=1;fillColor=light-dark(#FFE599,var(--ge-dark-color, #121212));" vertex="1" parent="1">
          <mxGeometry x="180" y="140" width="120" height="60" as="geometry" />
        </mxCell>
        <mxCell id="Hefcqt-eKA1M58TUaDVi-9" value="Criar conta" style="rounded=1;whiteSpace=wrap;html=1;fillColor=light-dark(#FFE599,var(--ge-dark-color, #121212));" vertex="1" parent="1">
          <mxGeometry x="-60" y="140" width="120" height="60" as="geometry" />
        </mxCell>
        <mxCell id="Hefcqt-eKA1M58TUaDVi-10" value="" style="endArrow=classic;html=1;rounded=0;exitX=0;exitY=1;exitDx=0;exitDy=0;entryX=0.5;entryY=0;entryDx=0;entryDy=0;" edge="1" parent="1" source="Hefcqt-eKA1M58TUaDVi-8" target="Hefcqt-eKA1M58TUaDVi-6">
          <mxGeometry width="50" height="50" relative="1" as="geometry">
            <mxPoint x="505" y="290" as="sourcePoint" />
            <mxPoint x="555" y="240" as="targetPoint" />
          </mxGeometry>
        </mxCell>
        <mxCell id="Hefcqt-eKA1M58TUaDVi-11" value="" style="endArrow=classic;html=1;rounded=0;exitX=0.5;exitY=1;exitDx=0;exitDy=0;entryX=0.5;entryY=0;entryDx=0;entryDy=0;" edge="1" parent="1" source="Hefcqt-eKA1M58TUaDVi-5" target="Hefcqt-eKA1M58TUaDVi-4">
          <mxGeometry width="50" height="50" relative="1" as="geometry">
            <mxPoint x="520" y="565" as="sourcePoint" />
            <mxPoint x="670" y="610" as="targetPoint" />
          </mxGeometry>
        </mxCell>
        <mxCell id="Hefcqt-eKA1M58TUaDVi-12" value="" style="endArrow=classic;html=1;rounded=0;exitX=1;exitY=1;exitDx=0;exitDy=0;entryX=0.5;entryY=0;entryDx=0;entryDy=0;" edge="1" parent="1" source="Hefcqt-eKA1M58TUaDVi-5" target="Hefcqt-eKA1M58TUaDVi-19">
          <mxGeometry width="50" height="50" relative="1" as="geometry">
            <mxPoint x="740" y="600" as="sourcePoint" />
            <mxPoint x="790" y="550" as="targetPoint" />
          </mxGeometry>
        </mxCell>
        <mxCell id="Hefcqt-eKA1M58TUaDVi-13" value="" style="endArrow=classic;html=1;rounded=0;exitX=0;exitY=0.5;exitDx=0;exitDy=0;entryX=1;entryY=0.5;entryDx=0;entryDy=0;" edge="1" parent="1" source="Hefcqt-eKA1M58TUaDVi-5" target="Hefcqt-eKA1M58TUaDVi-18">
          <mxGeometry width="50" height="50" relative="1" as="geometry">
            <mxPoint x="570" y="430" as="sourcePoint" />
            <mxPoint x="530" y="510" as="targetPoint" />
          </mxGeometry>
        </mxCell>
        <mxCell id="Hefcqt-eKA1M58TUaDVi-14" value="" style="endArrow=classic;html=1;rounded=0;exitX=1;exitY=0.5;exitDx=0;exitDy=0;entryX=0;entryY=0.5;entryDx=0;entryDy=0;" edge="1" parent="1" source="Hefcqt-eKA1M58TUaDVi-9" target="Hefcqt-eKA1M58TUaDVi-8">
          <mxGeometry width="50" height="50" relative="1" as="geometry">
            <mxPoint x="80" y="320" as="sourcePoint" />
            <mxPoint x="130" y="270" as="targetPoint" />
          </mxGeometry>
        </mxCell>
        <mxCell id="Hefcqt-eKA1M58TUaDVi-15" value="" style="endArrow=classic;html=1;rounded=0;exitX=0;exitY=0.5;exitDx=0;exitDy=0;entryX=1;entryY=0.5;entryDx=0;entryDy=0;" edge="1" parent="1" source="Hefcqt-eKA1M58TUaDVi-2" target="Hefcqt-eKA1M58TUaDVi-5">
          <mxGeometry width="50" height="50" relative="1" as="geometry">
            <mxPoint x="230" y="480" as="sourcePoint" />
            <mxPoint x="700" y="450" as="targetPoint" />
          </mxGeometry>
        </mxCell>
        <mxCell id="Hefcqt-eKA1M58TUaDVi-16" value="" style="endArrow=classic;html=1;rounded=0;exitX=1;exitY=0.625;exitDx=0;exitDy=0;exitPerimeter=0;entryX=0;entryY=0.5;entryDx=0;entryDy=0;" edge="1" parent="1" source="Hefcqt-eKA1M58TUaDVi-3" target="Hefcqt-eKA1M58TUaDVi-9">
          <mxGeometry width="50" height="50" relative="1" as="geometry">
            <mxPoint x="-120" y="240" as="sourcePoint" />
            <mxPoint x="-70" y="190" as="targetPoint" />
          </mxGeometry>
        </mxCell>
        <mxCell id="Hefcqt-eKA1M58TUaDVi-17" value="" style="endArrow=classic;html=1;rounded=0;exitX=1;exitY=1;exitDx=0;exitDy=0;entryX=0.567;entryY=0;entryDx=0;entryDy=0;entryPerimeter=0;" edge="1" parent="1" source="Hefcqt-eKA1M58TUaDVi-8" target="Hefcqt-eKA1M58TUaDVi-7">
          <mxGeometry width="50" height="50" relative="1" as="geometry">
            <mxPoint x="300" y="200" as="sourcePoint" />
            <mxPoint x="210" y="370" as="targetPoint" />
          </mxGeometry>
        </mxCell>
        <mxCell id="Hefcqt-eKA1M58TUaDVi-18" value="" style="rounded=1;whiteSpace=wrap;html=1;fillColor=light-dark(#FFE599,var(--ge-dark-color, #121212));" vertex="1" parent="1">
          <mxGeometry x="360" y="480" width="120" height="60" as="geometry" />
        </mxCell>
        <mxCell id="Hefcqt-eKA1M58TUaDVi-19" value="excluir prompt" style="rounded=1;whiteSpace=wrap;html=1;fillColor=light-dark(#FFE599,var(--ge-dark-color, #121212));" vertex="1" parent="1">
          <mxGeometry x="770" y="620" width="120" height="60" as="geometry" />
        </mxCell>
      </root>
    </mxGraphModel>
  </diagram>
</mxfile>
